<mxfile host="app.diagrams.net" modified="2021-11-29T03:49:51.279Z" agent="5.0 (Windows NT 10.0; Win64; x64) AppleWebKit/537.36 (KHTML, like Gecko) Chrome/96.0.4664.45 Safari/537.36" etag="82eW7wQsGMi3to-ZBqkv" version="15.8.6" type="github">
  <diagram id="C5RBs43oDa-KdzZeNtuy" name="Page-1">
    <mxGraphModel dx="868" dy="425" grid="1" gridSize="10" guides="1" tooltips="1" connect="1" arrows="1" fold="1" page="1" pageScale="1" pageWidth="2339" pageHeight="3300" math="0" shadow="0">
      <root>
        <mxCell id="WIyWlLk6GJQsqaUBKTNV-0" />
        <mxCell id="WIyWlLk6GJQsqaUBKTNV-1" parent="WIyWlLk6GJQsqaUBKTNV-0" />
        <mxCell id="CH0NcvdqYZ9hS3Exefi1-0" value="" style="rounded=1;whiteSpace=wrap;html=1;" vertex="1" parent="WIyWlLk6GJQsqaUBKTNV-1">
          <mxGeometry x="140" y="40" width="200" height="60" as="geometry" />
        </mxCell>
        <mxCell id="CH0NcvdqYZ9hS3Exefi1-2" value="mulai" style="text;html=1;resizable=0;autosize=1;align=center;verticalAlign=middle;points=[];fillColor=none;strokeColor=none;rounded=0;" vertex="1" parent="WIyWlLk6GJQsqaUBKTNV-1">
          <mxGeometry x="220" y="60" width="40" height="20" as="geometry" />
        </mxCell>
        <mxCell id="CH0NcvdqYZ9hS3Exefi1-4" value="" style="endArrow=classic;html=1;rounded=0;fontSize=18;exitX=0.5;exitY=1;exitDx=0;exitDy=0;" edge="1" parent="WIyWlLk6GJQsqaUBKTNV-1" source="CH0NcvdqYZ9hS3Exefi1-0" target="CH0NcvdqYZ9hS3Exefi1-5">
          <mxGeometry width="50" height="50" relative="1" as="geometry">
            <mxPoint x="170" y="140" as="sourcePoint" />
            <mxPoint x="240" y="200" as="targetPoint" />
          </mxGeometry>
        </mxCell>
        <mxCell id="CH0NcvdqYZ9hS3Exefi1-5" value="" style="rounded=0;whiteSpace=wrap;html=1;fontSize=18;" vertex="1" parent="WIyWlLk6GJQsqaUBKTNV-1">
          <mxGeometry x="80" y="160" width="320" height="120" as="geometry" />
        </mxCell>
        <mxCell id="CH0NcvdqYZ9hS3Exefi1-8" value="&quot;ibu memberi perintah&quot;&lt;br&gt;beli satu botol susu,&lt;br&gt;bila ada 6 telur bawa 6 butir telur" style="text;html=1;resizable=0;autosize=1;align=center;verticalAlign=middle;points=[];fillColor=none;strokeColor=none;rounded=0;fontSize=18;" vertex="1" parent="WIyWlLk6GJQsqaUBKTNV-1">
          <mxGeometry x="100" y="175" width="280" height="70" as="geometry" />
        </mxCell>
        <mxCell id="CH0NcvdqYZ9hS3Exefi1-9" value="" style="endArrow=classic;html=1;rounded=0;fontSize=18;exitX=0.5;exitY=1;exitDx=0;exitDy=0;" edge="1" parent="WIyWlLk6GJQsqaUBKTNV-1" source="CH0NcvdqYZ9hS3Exefi1-5">
          <mxGeometry width="50" height="50" relative="1" as="geometry">
            <mxPoint x="390" y="260" as="sourcePoint" />
            <mxPoint x="240" y="360" as="targetPoint" />
          </mxGeometry>
        </mxCell>
        <mxCell id="CH0NcvdqYZ9hS3Exefi1-10" value="" style="rounded=0;whiteSpace=wrap;html=1;fontSize=18;" vertex="1" parent="WIyWlLk6GJQsqaUBKTNV-1">
          <mxGeometry x="80" y="360" width="320" height="120" as="geometry" />
        </mxCell>
        <mxCell id="CH0NcvdqYZ9hS3Exefi1-12" value="Anak menjawab &quot;OK&quot;" style="text;html=1;resizable=0;autosize=1;align=center;verticalAlign=middle;points=[];fillColor=none;strokeColor=none;rounded=0;fontSize=18;" vertex="1" parent="WIyWlLk6GJQsqaUBKTNV-1">
          <mxGeometry x="145" y="405" width="190" height="30" as="geometry" />
        </mxCell>
        <mxCell id="CH0NcvdqYZ9hS3Exefi1-13" value="" style="rounded=0;whiteSpace=wrap;html=1;fontSize=18;" vertex="1" parent="WIyWlLk6GJQsqaUBKTNV-1">
          <mxGeometry x="80" y="555" width="320" height="60" as="geometry" />
        </mxCell>
        <mxCell id="CH0NcvdqYZ9hS3Exefi1-14" value="" style="endArrow=classic;html=1;rounded=0;fontSize=18;entryX=0.5;entryY=0;entryDx=0;entryDy=0;exitX=0.5;exitY=1;exitDx=0;exitDy=0;" edge="1" parent="WIyWlLk6GJQsqaUBKTNV-1" source="CH0NcvdqYZ9hS3Exefi1-10" target="CH0NcvdqYZ9hS3Exefi1-13">
          <mxGeometry width="50" height="50" relative="1" as="geometry">
            <mxPoint x="390" y="560" as="sourcePoint" />
            <mxPoint x="310" y="530" as="targetPoint" />
          </mxGeometry>
        </mxCell>
        <mxCell id="CH0NcvdqYZ9hS3Exefi1-15" value="Anak pergi ke warung" style="text;html=1;resizable=0;autosize=1;align=center;verticalAlign=middle;points=[];fillColor=none;strokeColor=none;rounded=0;fontSize=18;" vertex="1" parent="WIyWlLk6GJQsqaUBKTNV-1">
          <mxGeometry x="145" y="570" width="190" height="30" as="geometry" />
        </mxCell>
        <mxCell id="CH0NcvdqYZ9hS3Exefi1-17" value="" style="rhombus;whiteSpace=wrap;html=1;fontSize=18;" vertex="1" parent="WIyWlLk6GJQsqaUBKTNV-1">
          <mxGeometry x="120" y="680" width="240" height="150" as="geometry" />
        </mxCell>
        <mxCell id="CH0NcvdqYZ9hS3Exefi1-18" value="Apakah ada susu di warung?" style="text;html=1;resizable=0;autosize=1;align=center;verticalAlign=middle;points=[];fillColor=none;strokeColor=none;rounded=0;fontSize=18;" vertex="1" parent="WIyWlLk6GJQsqaUBKTNV-1">
          <mxGeometry x="115" y="740" width="250" height="30" as="geometry" />
        </mxCell>
        <mxCell id="CH0NcvdqYZ9hS3Exefi1-19" value="Ada" style="text;html=1;align=center;verticalAlign=middle;resizable=0;points=[];autosize=1;strokeColor=none;fillColor=none;fontSize=18;" vertex="1" parent="WIyWlLk6GJQsqaUBKTNV-1">
          <mxGeometry x="415" y="740" width="50" height="30" as="geometry" />
        </mxCell>
        <mxCell id="CH0NcvdqYZ9hS3Exefi1-20" value="" style="endArrow=classic;html=1;rounded=0;fontSize=18;exitX=0.5;exitY=1;exitDx=0;exitDy=0;entryX=0.5;entryY=0;entryDx=0;entryDy=0;" edge="1" parent="WIyWlLk6GJQsqaUBKTNV-1" source="CH0NcvdqYZ9hS3Exefi1-13" target="CH0NcvdqYZ9hS3Exefi1-17">
          <mxGeometry width="50" height="50" relative="1" as="geometry">
            <mxPoint x="390" y="860" as="sourcePoint" />
            <mxPoint x="440" y="810" as="targetPoint" />
          </mxGeometry>
        </mxCell>
        <mxCell id="CH0NcvdqYZ9hS3Exefi1-23" value="" style="endArrow=none;html=1;rounded=0;fontSize=18;exitX=1;exitY=0.533;exitDx=0;exitDy=0;exitPerimeter=0;" edge="1" parent="WIyWlLk6GJQsqaUBKTNV-1" source="CH0NcvdqYZ9hS3Exefi1-18">
          <mxGeometry width="50" height="50" relative="1" as="geometry">
            <mxPoint x="390" y="860" as="sourcePoint" />
            <mxPoint x="420" y="756" as="targetPoint" />
          </mxGeometry>
        </mxCell>
        <mxCell id="CH0NcvdqYZ9hS3Exefi1-24" value="" style="endArrow=classic;html=1;rounded=0;fontSize=18;" edge="1" parent="WIyWlLk6GJQsqaUBKTNV-1">
          <mxGeometry width="50" height="50" relative="1" as="geometry">
            <mxPoint x="460" y="759" as="sourcePoint" />
            <mxPoint x="550" y="759" as="targetPoint" />
          </mxGeometry>
        </mxCell>
        <mxCell id="CH0NcvdqYZ9hS3Exefi1-25" value="" style="endArrow=none;html=1;rounded=0;fontSize=18;entryX=0.5;entryY=1;entryDx=0;entryDy=0;" edge="1" parent="WIyWlLk6GJQsqaUBKTNV-1" target="CH0NcvdqYZ9hS3Exefi1-17">
          <mxGeometry width="50" height="50" relative="1" as="geometry">
            <mxPoint x="240" y="880" as="sourcePoint" />
            <mxPoint x="440" y="810" as="targetPoint" />
          </mxGeometry>
        </mxCell>
        <mxCell id="CH0NcvdqYZ9hS3Exefi1-26" value="Tidak ada" style="text;html=1;resizable=0;autosize=1;align=center;verticalAlign=middle;points=[];fillColor=none;strokeColor=none;rounded=0;fontSize=18;" vertex="1" parent="WIyWlLk6GJQsqaUBKTNV-1">
          <mxGeometry x="195" y="875" width="90" height="30" as="geometry" />
        </mxCell>
        <mxCell id="CH0NcvdqYZ9hS3Exefi1-27" value="" style="endArrow=classic;html=1;rounded=0;fontSize=18;" edge="1" parent="WIyWlLk6GJQsqaUBKTNV-1">
          <mxGeometry width="50" height="50" relative="1" as="geometry">
            <mxPoint x="239" y="900" as="sourcePoint" />
            <mxPoint x="239" y="960" as="targetPoint" />
          </mxGeometry>
        </mxCell>
        <mxCell id="CH0NcvdqYZ9hS3Exefi1-28" value="" style="rhombus;whiteSpace=wrap;html=1;fontSize=18;" vertex="1" parent="WIyWlLk6GJQsqaUBKTNV-1">
          <mxGeometry x="100" y="960" width="270" height="160" as="geometry" />
        </mxCell>
        <mxCell id="CH0NcvdqYZ9hS3Exefi1-29" value="Apakah ada 6 telur diwarung?" style="text;html=1;resizable=0;autosize=1;align=center;verticalAlign=middle;points=[];fillColor=none;strokeColor=none;rounded=0;fontSize=18;" vertex="1" parent="WIyWlLk6GJQsqaUBKTNV-1">
          <mxGeometry x="105" y="1025" width="250" height="30" as="geometry" />
        </mxCell>
        <mxCell id="CH0NcvdqYZ9hS3Exefi1-30" value="" style="rounded=0;whiteSpace=wrap;html=1;fontSize=18;" vertex="1" parent="WIyWlLk6GJQsqaUBKTNV-1">
          <mxGeometry x="550" y="720" width="250" height="80" as="geometry" />
        </mxCell>
        <mxCell id="CH0NcvdqYZ9hS3Exefi1-31" value="Anak membeli 1 Botol susu" style="text;html=1;resizable=0;autosize=1;align=center;verticalAlign=middle;points=[];fillColor=none;strokeColor=none;rounded=0;fontSize=18;" vertex="1" parent="WIyWlLk6GJQsqaUBKTNV-1">
          <mxGeometry x="560" y="740" width="230" height="30" as="geometry" />
        </mxCell>
        <mxCell id="CH0NcvdqYZ9hS3Exefi1-32" value="" style="endArrow=none;html=1;rounded=0;fontSize=18;exitX=1;exitY=0.5;exitDx=0;exitDy=0;" edge="1" parent="WIyWlLk6GJQsqaUBKTNV-1" source="CH0NcvdqYZ9hS3Exefi1-28">
          <mxGeometry width="50" height="50" relative="1" as="geometry">
            <mxPoint x="390" y="1030" as="sourcePoint" />
            <mxPoint x="440" y="1040" as="targetPoint" />
          </mxGeometry>
        </mxCell>
        <mxCell id="CH0NcvdqYZ9hS3Exefi1-33" value="Ada" style="text;html=1;resizable=0;autosize=1;align=center;verticalAlign=middle;points=[];fillColor=none;strokeColor=none;rounded=0;fontSize=18;" vertex="1" parent="WIyWlLk6GJQsqaUBKTNV-1">
          <mxGeometry x="435" y="1025" width="50" height="30" as="geometry" />
        </mxCell>
        <mxCell id="CH0NcvdqYZ9hS3Exefi1-34" value="" style="endArrow=classic;html=1;rounded=0;fontSize=18;exitX=0.9;exitY=0.5;exitDx=0;exitDy=0;exitPerimeter=0;" edge="1" parent="WIyWlLk6GJQsqaUBKTNV-1" source="CH0NcvdqYZ9hS3Exefi1-33">
          <mxGeometry width="50" height="50" relative="1" as="geometry">
            <mxPoint x="390" y="930" as="sourcePoint" />
            <mxPoint x="520" y="1040" as="targetPoint" />
          </mxGeometry>
        </mxCell>
        <mxCell id="CH0NcvdqYZ9hS3Exefi1-35" value="" style="rounded=0;whiteSpace=wrap;html=1;fontSize=18;" vertex="1" parent="WIyWlLk6GJQsqaUBKTNV-1">
          <mxGeometry x="520" y="1010" width="280" height="60" as="geometry" />
        </mxCell>
        <mxCell id="CH0NcvdqYZ9hS3Exefi1-36" value="Anak membeli 6 telur" style="text;html=1;resizable=0;autosize=1;align=center;verticalAlign=middle;points=[];fillColor=none;strokeColor=none;rounded=0;fontSize=18;" vertex="1" parent="WIyWlLk6GJQsqaUBKTNV-1">
          <mxGeometry x="570" y="1025" width="180" height="30" as="geometry" />
        </mxCell>
        <mxCell id="CH0NcvdqYZ9hS3Exefi1-38" value="" style="endArrow=none;html=1;rounded=0;fontSize=18;entryX=0.5;entryY=1;entryDx=0;entryDy=0;" edge="1" parent="WIyWlLk6GJQsqaUBKTNV-1" target="CH0NcvdqYZ9hS3Exefi1-28">
          <mxGeometry width="50" height="50" relative="1" as="geometry">
            <mxPoint x="235" y="1200" as="sourcePoint" />
            <mxPoint x="430" y="1150" as="targetPoint" />
          </mxGeometry>
        </mxCell>
        <mxCell id="CH0NcvdqYZ9hS3Exefi1-39" value="Tidak ada" style="text;html=1;resizable=0;autosize=1;align=center;verticalAlign=middle;points=[];fillColor=none;strokeColor=none;rounded=0;fontSize=18;" vertex="1" parent="WIyWlLk6GJQsqaUBKTNV-1">
          <mxGeometry x="190" y="1195" width="90" height="30" as="geometry" />
        </mxCell>
        <mxCell id="CH0NcvdqYZ9hS3Exefi1-40" value="" style="endArrow=classic;html=1;rounded=0;fontSize=18;" edge="1" parent="WIyWlLk6GJQsqaUBKTNV-1" source="CH0NcvdqYZ9hS3Exefi1-39">
          <mxGeometry width="50" height="50" relative="1" as="geometry">
            <mxPoint x="240" y="1230" as="sourcePoint" />
            <mxPoint x="235" y="1300" as="targetPoint" />
          </mxGeometry>
        </mxCell>
        <mxCell id="CH0NcvdqYZ9hS3Exefi1-41" value="" style="endArrow=none;html=1;rounded=0;fontSize=18;exitX=1;exitY=0.5;exitDx=0;exitDy=0;" edge="1" parent="WIyWlLk6GJQsqaUBKTNV-1" source="CH0NcvdqYZ9hS3Exefi1-30" target="CH0NcvdqYZ9hS3Exefi1-43">
          <mxGeometry width="50" height="50" relative="1" as="geometry">
            <mxPoint x="640" y="900" as="sourcePoint" />
            <mxPoint x="960" y="760" as="targetPoint" />
          </mxGeometry>
        </mxCell>
        <mxCell id="CH0NcvdqYZ9hS3Exefi1-43" value="" style="rhombus;whiteSpace=wrap;html=1;fontSize=18;" vertex="1" parent="WIyWlLk6GJQsqaUBKTNV-1">
          <mxGeometry x="920" y="660" width="200" height="200" as="geometry" />
        </mxCell>
        <mxCell id="CH0NcvdqYZ9hS3Exefi1-44" value="Apakah ada 6 butir&lt;br&gt;telur?" style="text;html=1;resizable=0;autosize=1;align=center;verticalAlign=middle;points=[];fillColor=none;strokeColor=none;rounded=0;fontSize=18;" vertex="1" parent="WIyWlLk6GJQsqaUBKTNV-1">
          <mxGeometry x="935" y="735" width="170" height="50" as="geometry" />
        </mxCell>
        <mxCell id="CH0NcvdqYZ9hS3Exefi1-45" value="" style="endArrow=none;html=1;rounded=0;fontSize=18;entryX=0.5;entryY=1;entryDx=0;entryDy=0;" edge="1" parent="WIyWlLk6GJQsqaUBKTNV-1" target="CH0NcvdqYZ9hS3Exefi1-43">
          <mxGeometry width="50" height="50" relative="1" as="geometry">
            <mxPoint x="1020" y="920" as="sourcePoint" />
            <mxPoint x="1010" y="840" as="targetPoint" />
          </mxGeometry>
        </mxCell>
        <mxCell id="CH0NcvdqYZ9hS3Exefi1-46" value="" style="endArrow=none;html=1;rounded=0;fontSize=18;entryX=1;entryY=0.5;entryDx=0;entryDy=0;" edge="1" parent="WIyWlLk6GJQsqaUBKTNV-1" target="CH0NcvdqYZ9hS3Exefi1-43">
          <mxGeometry width="50" height="50" relative="1" as="geometry">
            <mxPoint x="1200" y="760" as="sourcePoint" />
            <mxPoint x="1010" y="840" as="targetPoint" />
          </mxGeometry>
        </mxCell>
        <mxCell id="CH0NcvdqYZ9hS3Exefi1-47" value="Ada" style="text;html=1;resizable=0;autosize=1;align=center;verticalAlign=middle;points=[];fillColor=none;strokeColor=none;rounded=0;fontSize=18;" vertex="1" parent="WIyWlLk6GJQsqaUBKTNV-1">
          <mxGeometry x="1195" y="745" width="50" height="30" as="geometry" />
        </mxCell>
        <mxCell id="CH0NcvdqYZ9hS3Exefi1-48" value="Tidak ada" style="text;html=1;resizable=0;autosize=1;align=center;verticalAlign=middle;points=[];fillColor=none;strokeColor=none;rounded=0;fontSize=18;" vertex="1" parent="WIyWlLk6GJQsqaUBKTNV-1">
          <mxGeometry x="975" y="915" width="90" height="30" as="geometry" />
        </mxCell>
        <mxCell id="CH0NcvdqYZ9hS3Exefi1-49" value="" style="rounded=0;whiteSpace=wrap;html=1;fontSize=18;" vertex="1" parent="WIyWlLk6GJQsqaUBKTNV-1">
          <mxGeometry x="80" y="1300" width="310" height="70" as="geometry" />
        </mxCell>
        <mxCell id="CH0NcvdqYZ9hS3Exefi1-50" value="Anak tidak jadi belanja satu botol susu&lt;br&gt;dan 6 butir telur" style="text;html=1;resizable=0;autosize=1;align=center;verticalAlign=middle;points=[];fillColor=none;strokeColor=none;rounded=0;fontSize=18;" vertex="1" parent="WIyWlLk6GJQsqaUBKTNV-1">
          <mxGeometry x="75" y="1305" width="320" height="50" as="geometry" />
        </mxCell>
        <mxCell id="CH0NcvdqYZ9hS3Exefi1-51" value="" style="endArrow=none;html=1;rounded=0;fontSize=18;entryX=0.5;entryY=1;entryDx=0;entryDy=0;" edge="1" parent="WIyWlLk6GJQsqaUBKTNV-1" target="CH0NcvdqYZ9hS3Exefi1-49">
          <mxGeometry width="50" height="50" relative="1" as="geometry">
            <mxPoint x="235" y="1440" as="sourcePoint" />
            <mxPoint x="440" y="1340" as="targetPoint" />
          </mxGeometry>
        </mxCell>
        <mxCell id="CH0NcvdqYZ9hS3Exefi1-54" value="" style="rounded=0;whiteSpace=wrap;html=1;fontSize=18;" vertex="1" parent="WIyWlLk6GJQsqaUBKTNV-1">
          <mxGeometry x="80" y="1440" width="320" height="80" as="geometry" />
        </mxCell>
        <mxCell id="CH0NcvdqYZ9hS3Exefi1-55" value="Anak pulang ke rumah" style="text;html=1;resizable=0;autosize=1;align=center;verticalAlign=middle;points=[];fillColor=none;strokeColor=none;rounded=0;fontSize=18;" vertex="1" parent="WIyWlLk6GJQsqaUBKTNV-1">
          <mxGeometry x="135" y="1465" width="200" height="30" as="geometry" />
        </mxCell>
        <mxCell id="CH0NcvdqYZ9hS3Exefi1-56" value="" style="endArrow=classic;html=1;rounded=0;fontSize=18;exitX=0.5;exitY=1;exitDx=0;exitDy=0;" edge="1" parent="WIyWlLk6GJQsqaUBKTNV-1" source="CH0NcvdqYZ9hS3Exefi1-54">
          <mxGeometry width="50" height="50" relative="1" as="geometry">
            <mxPoint x="450" y="1470" as="sourcePoint" />
            <mxPoint x="240" y="1600" as="targetPoint" />
          </mxGeometry>
        </mxCell>
        <mxCell id="CH0NcvdqYZ9hS3Exefi1-57" value="" style="rounded=0;whiteSpace=wrap;html=1;fontSize=18;" vertex="1" parent="WIyWlLk6GJQsqaUBKTNV-1">
          <mxGeometry x="90" y="1600" width="310" height="80" as="geometry" />
        </mxCell>
        <mxCell id="CH0NcvdqYZ9hS3Exefi1-58" value="Anak Menyerahkan Hasil Belanja&lt;br&gt;Kepada Ibu" style="text;html=1;resizable=0;autosize=1;align=center;verticalAlign=middle;points=[];fillColor=none;strokeColor=none;rounded=0;fontSize=18;" vertex="1" parent="WIyWlLk6GJQsqaUBKTNV-1">
          <mxGeometry x="100" y="1615" width="280" height="50" as="geometry" />
        </mxCell>
        <mxCell id="CH0NcvdqYZ9hS3Exefi1-59" value="" style="endArrow=classic;html=1;rounded=0;fontSize=18;exitX=0.5;exitY=1;exitDx=0;exitDy=0;" edge="1" parent="WIyWlLk6GJQsqaUBKTNV-1" source="CH0NcvdqYZ9hS3Exefi1-57">
          <mxGeometry width="50" height="50" relative="1" as="geometry">
            <mxPoint x="450" y="1560" as="sourcePoint" />
            <mxPoint x="245" y="1760" as="targetPoint" />
          </mxGeometry>
        </mxCell>
        <mxCell id="CH0NcvdqYZ9hS3Exefi1-60" value="" style="rounded=1;whiteSpace=wrap;html=1;fontSize=18;" vertex="1" parent="WIyWlLk6GJQsqaUBKTNV-1">
          <mxGeometry x="110" y="1760" width="270" height="100" as="geometry" />
        </mxCell>
        <mxCell id="CH0NcvdqYZ9hS3Exefi1-61" value="Selesai" style="text;html=1;resizable=0;autosize=1;align=center;verticalAlign=middle;points=[];fillColor=none;strokeColor=none;rounded=0;fontSize=18;" vertex="1" parent="WIyWlLk6GJQsqaUBKTNV-1">
          <mxGeometry x="210" y="1795" width="70" height="30" as="geometry" />
        </mxCell>
        <mxCell id="CH0NcvdqYZ9hS3Exefi1-62" value="" style="endArrow=none;html=1;rounded=0;fontSize=18;entryX=0.5;entryY=1;entryDx=0;entryDy=0;" edge="1" parent="WIyWlLk6GJQsqaUBKTNV-1" target="CH0NcvdqYZ9hS3Exefi1-35">
          <mxGeometry width="50" height="50" relative="1" as="geometry">
            <mxPoint x="660" y="1480" as="sourcePoint" />
            <mxPoint x="880" y="1100" as="targetPoint" />
          </mxGeometry>
        </mxCell>
        <mxCell id="CH0NcvdqYZ9hS3Exefi1-63" value="" style="endArrow=classic;html=1;rounded=0;fontSize=18;entryX=1;entryY=0.5;entryDx=0;entryDy=0;" edge="1" parent="WIyWlLk6GJQsqaUBKTNV-1" target="CH0NcvdqYZ9hS3Exefi1-54">
          <mxGeometry width="50" height="50" relative="1" as="geometry">
            <mxPoint x="660" y="1480" as="sourcePoint" />
            <mxPoint x="560" y="1540" as="targetPoint" />
          </mxGeometry>
        </mxCell>
        <mxCell id="CH0NcvdqYZ9hS3Exefi1-64" value="" style="endArrow=classic;html=1;rounded=0;fontSize=18;" edge="1" parent="WIyWlLk6GJQsqaUBKTNV-1" source="CH0NcvdqYZ9hS3Exefi1-47">
          <mxGeometry width="50" height="50" relative="1" as="geometry">
            <mxPoint x="970" y="810" as="sourcePoint" />
            <mxPoint x="1360" y="760" as="targetPoint" />
          </mxGeometry>
        </mxCell>
        <mxCell id="CH0NcvdqYZ9hS3Exefi1-65" value="" style="rounded=0;whiteSpace=wrap;html=1;fontSize=18;" vertex="1" parent="WIyWlLk6GJQsqaUBKTNV-1">
          <mxGeometry x="1360" y="730" width="250" height="60" as="geometry" />
        </mxCell>
        <mxCell id="CH0NcvdqYZ9hS3Exefi1-68" value="Anak membeli 6 butir telur" style="text;html=1;resizable=0;autosize=1;align=center;verticalAlign=middle;points=[];fillColor=none;strokeColor=none;rounded=0;fontSize=18;" vertex="1" parent="WIyWlLk6GJQsqaUBKTNV-1">
          <mxGeometry x="1375" y="745" width="220" height="30" as="geometry" />
        </mxCell>
        <mxCell id="CH0NcvdqYZ9hS3Exefi1-69" value="" style="endArrow=none;html=1;rounded=0;fontSize=18;entryX=0.552;entryY=1.083;entryDx=0;entryDy=0;entryPerimeter=0;" edge="1" parent="WIyWlLk6GJQsqaUBKTNV-1" target="CH0NcvdqYZ9hS3Exefi1-65">
          <mxGeometry width="50" height="50" relative="1" as="geometry">
            <mxPoint x="1498" y="1480" as="sourcePoint" />
            <mxPoint x="1210" y="930" as="targetPoint" />
          </mxGeometry>
        </mxCell>
        <mxCell id="CH0NcvdqYZ9hS3Exefi1-70" value="" style="endArrow=classic;html=1;rounded=0;fontSize=18;" edge="1" parent="WIyWlLk6GJQsqaUBKTNV-1">
          <mxGeometry width="50" height="50" relative="1" as="geometry">
            <mxPoint x="1500" y="1480" as="sourcePoint" />
            <mxPoint x="660" y="1480" as="targetPoint" />
          </mxGeometry>
        </mxCell>
        <mxCell id="CH0NcvdqYZ9hS3Exefi1-71" value="" style="endArrow=classic;html=1;rounded=0;fontSize=18;exitX=0.533;exitY=1.067;exitDx=0;exitDy=0;exitPerimeter=0;" edge="1" parent="WIyWlLk6GJQsqaUBKTNV-1" source="CH0NcvdqYZ9hS3Exefi1-48">
          <mxGeometry width="50" height="50" relative="1" as="geometry">
            <mxPoint x="1010" y="970" as="sourcePoint" />
            <mxPoint x="1020" y="1000" as="targetPoint" />
          </mxGeometry>
        </mxCell>
        <mxCell id="CH0NcvdqYZ9hS3Exefi1-72" value="" style="rounded=0;whiteSpace=wrap;html=1;fontSize=18;" vertex="1" parent="WIyWlLk6GJQsqaUBKTNV-1">
          <mxGeometry x="910" y="1010" width="220" height="60" as="geometry" />
        </mxCell>
        <mxCell id="CH0NcvdqYZ9hS3Exefi1-74" value="Anak tidak jadi membeli&lt;br&gt;6 Butir telur" style="text;html=1;resizable=0;autosize=1;align=center;verticalAlign=middle;points=[];fillColor=none;strokeColor=none;rounded=0;fontSize=18;" vertex="1" parent="WIyWlLk6GJQsqaUBKTNV-1">
          <mxGeometry x="915" y="1015" width="210" height="50" as="geometry" />
        </mxCell>
        <mxCell id="CH0NcvdqYZ9hS3Exefi1-75" value="" style="endArrow=none;html=1;rounded=0;fontSize=18;entryX=0.473;entryY=1.067;entryDx=0;entryDy=0;entryPerimeter=0;" edge="1" parent="WIyWlLk6GJQsqaUBKTNV-1" target="CH0NcvdqYZ9hS3Exefi1-72">
          <mxGeometry width="50" height="50" relative="1" as="geometry">
            <mxPoint x="1014" y="1480" as="sourcePoint" />
            <mxPoint x="880" y="740" as="targetPoint" />
          </mxGeometry>
        </mxCell>
      </root>
    </mxGraphModel>
  </diagram>
</mxfile>
